<svg version="1.1" id="Layer_1" xmlns="http://www.w3.org/2000/svg" xmlns:xlink="http://www.w3.org/1999/xlink" x="0px" y="0px"
	 width="100%" viewBox="0 0 1000 1000" enable-background="new 0 0 1000 1000" xml:space="preserve">
<path fill="#f2f2f2" opacity="1.000000" stroke="none" 
	d="
M274.595001,856.235962 
	C264.202789,852.692505 254.026947,849.729797 244.171600,845.934875 
	C224.929398,838.525208 205.726883,830.975220 186.781860,822.845032 
	C175.605438,818.048706 164.853256,812.218689 154.093124,806.509033 
	C140.932541,799.525513 127.726669,792.573730 114.976784,784.884644 
	C101.747223,776.906250 88.990784,768.135864 76.119728,759.573120 
	C66.990341,753.499573 58.052155,747.139160 48.946342,741.029419 
	C46.286594,739.244751 45.000725,737.273621 44.894268,733.847229 
	C44.490009,720.835510 43.400810,707.843811 43.060104,694.831726 
	C42.503803,673.585938 42.012329,652.328552 42.113602,631.078979 
	C42.180359,617.071838 42.973774,603.040894 44.098381,589.073425 
	C45.342491,573.621826 46.695423,558.127258 49.159130,542.838074 
	C52.471542,522.282043 56.511715,501.821503 60.953892,481.475922 
	C64.790939,463.901917 68.754555,446.266754 74.232063,429.161285 
	C81.749733,405.684723 90.404663,382.550476 99.238823,359.525269 
	C104.858170,344.879089 111.146721,330.429962 118.098534,316.368713 
	C128.620331,295.086578 139.594955,274.004852 151.119370,253.250092 
	C158.995300,239.066025 168.751984,225.918411 176.484589,211.665512 
	C181.302155,202.785675 189.595978,200.312927 197.458664,197.107147 
	C219.695663,188.040634 241.903732,178.720749 264.696045,171.247864 
	C289.379333,163.154984 314.659088,156.845917 339.784027,150.154434 
	C348.503662,147.832153 357.521515,146.595139 366.437225,145.060364 
	C370.077209,144.433762 372.929047,144.995087 374.881195,149.249893 
	C381.903839,164.555969 389.443817,179.624695 396.772064,194.749557 
	C465.917297,184.162491 535.227966,184.720230 605.171021,194.658691 
	C608.054565,188.347473 610.933777,181.786148 614.030334,175.329010 
	C618.623352,165.751343 623.181274,156.144485 628.258484,146.824860 
	C629.007690,145.449600 632.655884,144.807175 634.739746,145.156464 
	C642.524292,146.461243 650.195129,148.425674 657.946228,149.951614 
	C688.422058,155.951309 718.266357,164.291458 747.420166,174.921661 
	C767.254211,182.153641 786.763672,190.277740 806.397644,198.054871 
	C810.264099,199.586395 814.086731,201.252533 817.823669,203.073792 
	C819.051758,203.672348 820.234741,204.780685 820.949158,205.953827 
	C833.578369,226.693024 846.586304,247.220612 858.560608,268.333740 
	C868.445374,285.762573 877.825867,303.561584 886.091797,321.802856 
	C896.124695,343.943420 905.173462,366.559296 913.879944,389.264008 
	C924.400879,416.700073 932.542480,444.928711 939.111511,473.565552 
	C942.501465,488.343964 945.177429,503.290894 947.965820,518.200989 
	C950.137634,529.814209 952.208130,541.455933 953.896118,553.146729 
	C954.994263,560.752319 955.479004,568.458862 955.968811,576.137451 
	C957.069031,593.385864 957.991089,610.645630 959.005249,627.899658 
	C959.652161,638.905090 960.914856,649.911682 960.855591,660.912109 
	C960.778381,675.253052 959.753113,689.593201 958.966309,703.924377 
	C958.471436,712.937927 957.540771,721.927551 957.049744,730.941223 
	C956.780579,735.881714 955.106140,739.762695 950.910278,742.615662 
	C940.104919,749.962585 929.673462,757.901917 918.571045,764.760315 
	C898.355164,777.248474 877.981384,789.517517 857.253174,801.127502 
	C841.995117,809.673584 826.326782,817.603149 810.368408,824.751587 
	C793.137329,832.470154 775.415527,839.114319 757.790222,845.922913 
	C748.685608,849.440002 739.322876,852.287964 730.083130,855.456543 
	C722.937012,857.907104 721.951172,857.478149 717.996948,851.159302 
	C709.122437,836.978027 699.894226,823.011169 691.299805,808.663696 
	C684.714905,797.671021 678.879639,786.229309 672.951660,775.426025 
	C688.819458,768.185120 704.474609,761.353821 719.834961,753.913940 
	C728.936218,749.505737 737.485962,743.972107 746.457703,739.277039 
	C750.317566,737.257080 749.355164,735.541992 746.927551,733.464783 
	C742.958618,730.068726 738.985474,726.671326 734.890320,723.430847 
	C731.352722,720.631653 728.488586,724.197510 725.799438,725.231873 
	C710.597900,731.078430 695.898804,738.313416 680.520752,743.597961 
	C660.835327,750.362732 640.816528,756.302612 620.656250,761.489563 
	C607.069153,764.985291 593.052246,767.044800 579.113281,768.877502 
	C562.439880,771.069763 545.675781,772.860107 528.893433,773.855164 
	C512.014648,774.855957 495.057465,775.129150 478.149475,774.843567 
	C465.881592,774.636475 453.549133,773.612244 441.404144,771.855530 
	C423.163666,769.217041 404.951447,766.134460 386.934753,762.272461 
	C371.097809,758.877625 355.341522,754.793213 339.915100,749.868469 
	C315.649811,742.121948 291.657867,733.499329 269.091003,722.122864 
	C262.990326,726.972656 257.017578,731.720703 249.983505,737.312439 
	C266.077850,745.429871 281.432068,753.435486 297.027161,760.940613 
	C306.257904,765.382935 315.936371,768.890747 325.221039,773.230469 
	C326.335175,773.751160 327.229462,777.367004 326.550537,778.686279 
	C320.829498,789.804016 315.093018,800.947571 308.627991,811.640076 
	C300.797638,824.590698 292.440521,837.238098 283.876801,849.718567 
	C281.859497,852.658569 281.169739,858.597900 274.595001,856.235962 
M650.554626,443.000000 
	C640.001099,442.907776 630.311951,445.802490 620.854492,450.483795 
	C603.195435,459.224762 590.641846,472.799408 582.036438,490.165161 
	C572.111389,510.193756 569.291870,531.258911 572.893188,553.422852 
	C576.793762,577.428772 587.526672,597.444641 606.367493,612.720520 
	C622.447693,625.758118 640.769165,631.838928 661.836426,629.135315 
	C673.431641,627.647400 684.063416,624.160156 693.676086,617.699951 
	C713.708130,604.237244 725.984192,585.364441 732.046021,562.168640 
	C735.754517,547.978210 735.948425,533.673035 733.988220,519.266052 
	C731.467896,500.742584 724.113220,484.220184 711.694580,470.365570 
	C695.760864,452.589539 676.226868,441.915344 650.554626,443.000000 
M279.976196,484.538300 
	C277.646454,489.629089 275.030579,494.610901 273.041443,499.831482 
	C267.419617,514.586365 265.226990,529.715210 266.806274,545.633545 
	C268.038330,558.052002 271.199493,569.727905 276.484863,580.823059 
	C281.133026,590.580627 286.844299,599.789124 295.351196,606.797791 
	C301.521881,611.881653 307.355255,617.759399 314.326141,621.385559 
	C322.187592,625.474854 330.761902,628.127136 339.973724,629.317932 
	C354.975555,631.257263 368.822479,628.303101 381.841949,621.849792 
	C399.246033,613.223267 410.920197,598.806519 420.173950,581.841553 
	C430.240509,563.386292 428.891876,543.344421 429.707947,523.656372 
	C429.991852,516.806458 427.621490,509.589233 425.319458,502.935547 
	C416.997162,478.881287 402.102753,460.357178 378.688629,449.227966 
	C363.765625,442.134705 348.046356,440.868713 332.397736,444.479248 
	C309.450104,449.773804 292.432068,463.769897 279.976196,484.538300 
z"/>
</svg>