<?xml version="1.0" encoding="UTF-8"?>
<svg id="Layer_2" data-name="Layer 2" xmlns="http://www.w3.org/2000/svg" viewBox="0 0 864 864">
  <defs>
    <style>
      .cls-1 {
        fill: #fff;
      }
    </style>
  </defs>
  <circle cx="432" cy="432" r="421"/>
  <path class="cls-1" d="M151.96,616.61c-5.6,0-9.8-1.61-12.6-4.83s-4.2-8.06-4.2-14.5c0-6.11,1.45-10.85,4.36-14.2,2.91-3.36,6.98-5.03,12.23-5.03,2.62,0,4.92,.41,6.9,1.23,1.97,.82,3.43,1.98,4.36,3.47l-3.94,3.91c-.81-1.2-1.83-2.12-3.05-2.77-1.22-.65-2.54-.98-3.95-.98-3.56,0-6.32,1.23-8.3,3.69-1.97,2.46-2.96,5.93-2.96,10.42,0,4.91,.99,8.6,2.96,11.06,1.97,2.46,4.91,3.69,8.82,3.69,1.67,0,3.15-.16,4.42-.49,1.28-.33,2.32-.6,3.13-.83l2.06,4.6c-.74,.23-2.04,.55-3.9,.96-1.86,.41-3.98,.62-6.35,.62Zm-2.43-14.27v-5.02h12.52v5.02h-12.52Zm7.66,12.68v-17.7h5.02v17.7h-5.02Z"/>
  <path class="cls-1" d="M184.76,616.61c-3.88,0-6.89-1.27-9.04-3.8-2.15-2.54-3.22-6.11-3.22-10.73s1.07-8.21,3.22-10.74c2.15-2.53,5.16-3.79,9.04-3.79s6.91,1.26,9.05,3.79c2.14,2.53,3.21,6.11,3.21,10.74s-1.07,8.19-3.21,10.73-5.16,3.8-9.05,3.8Zm0-5.02c2.06,0,3.65-.83,4.77-2.48,1.12-1.66,1.68-4,1.68-7.03s-.56-5.39-1.68-7.04c-1.12-1.65-2.71-2.47-4.77-2.47s-3.65,.82-4.77,2.47c-1.12,1.65-1.68,3.99-1.68,7.04s.56,5.37,1.68,7.03c1.12,1.66,2.71,2.48,4.77,2.48Z"/>
  <path class="cls-1" d="M220.25,616.61c-3.88,0-6.89-1.27-9.04-3.8s-3.22-6.11-3.22-10.73,1.07-8.21,3.22-10.74c2.15-2.53,5.16-3.79,9.04-3.79s6.91,1.26,9.05,3.79c2.14,2.53,3.21,6.11,3.21,10.74s-1.07,8.19-3.21,10.73-5.16,3.8-9.05,3.8Zm0-5.02c2.06,0,3.65-.83,4.77-2.48,1.12-1.66,1.68-4,1.68-7.03s-.56-5.39-1.68-7.04c-1.12-1.65-2.71-2.47-4.77-2.47s-3.65,.82-4.77,2.47c-1.12,1.65-1.68,3.99-1.68,7.04s.56,5.37,1.68,7.03c1.12,1.66,2.71,2.48,4.77,2.48Z"/>
  <path class="cls-1" d="M253.6,616.61c-3.66,0-6.44-1.21-8.33-3.62-1.89-2.41-2.84-5.96-2.84-10.65s.95-8.54,2.84-11.04c1.89-2.5,4.67-3.75,8.33-3.75,2.1,0,3.8,.49,5.11,1.48,1.31,.99,2.08,2.36,2.31,4.12h2.17l-1.64,7.98c0-2.89-.57-5.08-1.7-6.58-1.14-1.5-2.81-2.25-5.01-2.25s-3.96,.85-5.13,2.54-1.74,4.19-1.74,7.5c0,3.14,.58,5.5,1.74,7.11,1.16,1.6,2.87,2.4,5.13,2.4s3.87-.75,5.01-2.25c1.14-1.5,1.7-3.69,1.7-6.58l1.9,7.98h-2.43c-.18,1.76-.92,3.14-2.23,4.12-1.31,.99-3.04,1.48-5.19,1.48Zm8.53-.26l-.58-5.5v-34.4h5.6v39.63l-5.02,.26Z"/>
  <path class="cls-1" d="M314.25,616.08v-37.52h5.07v37.52h-5.07Zm10.04-15.32l-4.28-15.53h-1.53v-6.66h3.75l4.28,16.12h.21l.53,6.08h-2.96Zm1.53,0l.79-6.08h.32l4.28-16.12h3.75v6.66h-1.53l-4.28,15.53h-3.33Zm8.3,15.32v-37.52h5.07v37.52h-5.07Z"/>
  <path class="cls-1" d="M362.21,616.61c-3.88,0-6.89-1.27-9.04-3.8-2.15-2.54-3.22-6.11-3.22-10.73s1.07-8.21,3.22-10.74c2.15-2.53,5.16-3.79,9.04-3.79s6.91,1.26,9.05,3.79c2.14,2.53,3.21,6.11,3.21,10.74s-1.07,8.19-3.21,10.73c-2.14,2.54-5.16,3.8-9.05,3.8Zm0-5.02c2.06,0,3.65-.83,4.77-2.48,1.12-1.66,1.68-4,1.68-7.03s-.56-5.39-1.68-7.04c-1.12-1.65-2.71-2.47-4.77-2.47s-3.65,.82-4.77,2.47c-1.12,1.65-1.68,3.99-1.68,7.04s.56,5.37,1.68,7.03c1.12,1.66,2.71,2.48,4.77,2.48Z"/>
  <path class="cls-1" d="M383.96,616.08v-4.6h18.7v4.6h-18.7Zm1.06-23.41v-4.6h9.35l.53,4.6h-9.88Zm5.18,23.41v-28h4.54l1.06,8.03v19.97h-5.6Zm5.6-12.05l-1.64-8.77h2.17c.32-5.14,2.89-7.71,7.71-7.71,2.89,0,4.98,.83,6.29,2.48,1.3,1.66,1.96,4.33,1.96,8.03h-5.55c0-2.04-.3-3.51-.91-4.41-.61-.9-1.59-1.35-2.95-1.35-2.38,0-4.15,1.02-5.32,3.05-1.17,2.04-1.76,4.93-1.76,8.68Z"/>
  <path class="cls-1" d="M421.78,616.08v-28h5.07l.53,5.92v22.09h-5.6Zm17.23,0v-18.23c0-1.69-.44-2.99-1.32-3.91-.88-.92-2.11-1.37-3.7-1.37-4.4,0-6.6,2.59-6.6,7.77l-1.64-7.19h2.17c.16-1.88,.85-3.29,2.06-4.21,1.22-.93,2.99-1.39,5.34-1.39,2.96,0,5.25,.9,6.87,2.69,1.62,1.8,2.43,4.33,2.43,7.61v18.23h-5.6Z"/>
  <path class="cls-1" d="M457.05,616.08v-4.6h11.2v4.6h-11.2Zm1.59-23.41v-4.6h14.69v4.6h-14.69Zm11.7-9.04c-1.07,0-2-.38-2.76-1.15s-1.15-1.69-1.15-2.76,.38-2.02,1.15-2.77c.77-.76,1.69-1.14,2.76-1.14s2.02,.38,2.77,1.14c.76,.76,1.14,1.68,1.14,2.77s-.38,1.99-1.14,2.76c-.76,.77-1.68,1.15-2.77,1.15Zm-2.62,32.44v-26.42h5.6v26.42h-5.6Zm5.07,0v-4.6h9.14v4.6h-9.14Z"/>
  <path class="cls-1" d="M492.76,616.08v-28h5.07l.53,5.92v22.09h-5.6Zm17.23,0v-18.23c0-1.69-.44-2.99-1.32-3.91-.88-.92-2.11-1.37-3.7-1.37-4.4,0-6.6,2.59-6.6,7.77l-1.64-7.19h2.17c.16-1.88,.85-3.29,2.06-4.21,1.22-.93,2.99-1.39,5.34-1.39,2.96,0,5.25,.9,6.87,2.69,1.62,1.8,2.43,4.33,2.43,7.61v18.23h-5.6Z"/>
  <path class="cls-1" d="M537.52,616.61c-3.66,0-6.44-1.21-8.34-3.62-1.89-2.41-2.84-5.96-2.84-10.65s.95-8.54,2.84-11.04c1.89-2.5,4.67-3.75,8.34-3.75,2.18,0,3.95,.49,5.31,1.48,1.36,.99,2.15,2.36,2.38,4.12h2.17l-1.9,7.98c0-2.89-.57-5.08-1.7-6.58-1.14-1.5-2.8-2.25-5.01-2.25s-3.96,.85-5.13,2.54-1.74,4.19-1.74,7.5c0,3.14,.58,5.5,1.74,7.11,1.16,1.6,2.87,2.4,5.13,2.4s3.87-.75,5.01-2.25c1.14-1.5,1.7-3.69,1.7-6.58l1.9,7.98h-2.43c-.18,1.76-.92,3.14-2.23,4.12-1.31,.99-3.04,1.48-5.19,1.48Zm-8.9,12.1l-.26-5.13,8.98-.26c2.84-.09,4.9-.87,6.18-2.35,1.29-1.48,1.94-3.66,1.96-6.53v-20.45l.53-5.92h5.07v25.52c0,4.98-1.14,8.67-3.41,11.04s-5.89,3.65-10.86,3.8l-8.19,.26Z"/>
  <path class="cls-1" d="M598.7,616.08v-37.52h5.07v37.52h-5.07Zm17.23,0l-11.62-28.53h-2.43v-8.98h3.49l11.62,28.53h1.32v8.98h-2.38Zm1.59,0v-37.52h5.07v37.52h-5.07Z"/>
  <path class="cls-1" d="M648.83,616.61c-4.77,0-8.46-1.25-11.06-3.77-2.6-2.51-3.9-6.12-3.9-10.82s1.1-8.14,3.3-10.67c2.2-2.54,5.31-3.8,9.33-3.8,3.79,0,6.71,1.15,8.78,3.43,2.07,2.29,3.1,5.62,3.1,9.99,0,1.29-.05,2.48-.16,3.59h-19.66v-4.28h14.74c0-2.52-.6-4.45-1.8-5.8-1.2-1.35-2.85-2.02-4.97-2.02-2.38,0-4.22,.81-5.53,2.43-1.31,1.62-1.97,3.91-1.97,6.87,0,3.24,.9,5.71,2.71,7.4,1.81,1.69,4.37,2.54,7.7,2.54,1.16,0,2.31-.07,3.43-.2,1.13-.13,2.27-.31,3.43-.54l.69,4.91c-1.66,.32-3.17,.52-4.54,.61-1.37,.09-2.59,.13-3.65,.13Z"/>
  <path class="cls-1" d="M670.79,616.08l-3.17-28h5.28l2.11,23.78h.48l3.3-23.78h5.13l-2.35,5.76h-.37l-3.28,22.24h-7.13Zm14,0l-3.28-22.24h-.42l-2.3-5.76h5.13l3.3,23.78h.48l2.38-23.78h5.55l-3.96,28h-6.87Z"/>
  <path class="cls-1" d="M714.95,616.61c-2.11,0-3.92-.06-5.43-.18-1.51-.12-2.88-.33-4.14-.61l.63-5.07c1.85,.28,3.48,.49,4.9,.63,1.42,.14,2.76,.21,4.03,.21,2.84,0,4.89-.28,6.17-.83,1.28-.56,1.92-1.44,1.92-2.66,0-.85-.22-1.48-.67-1.89-.45-.41-1.14-.74-2.07-.96l-6.45-1.64c-2.77-.7-4.79-1.58-6.09-2.62-1.29-1.04-1.94-2.62-1.94-4.73,0-3.06,1.18-5.28,3.53-6.66,2.35-1.37,6.14-2.06,11.37-2.06,1.36,0,2.62,.04,3.79,.12,1.17,.08,2.37,.22,3.61,.41l-.58,4.86c-1.43-.14-2.69-.24-3.78-.29-1.09-.05-2.16-.08-3.2-.08-3.14,0-5.41,.27-6.82,.81-1.41,.54-2.11,1.41-2.11,2.63,0,.81,.29,1.4,.87,1.76,.58,.36,1.47,.69,2.67,.99l5.18,1.27c2.94,.7,5.09,1.65,6.46,2.83,1.36,1.18,2.05,2.9,2.05,5.15,0,3.01-1.1,5.2-3.3,6.57-2.2,1.36-5.73,2.05-10.59,2.05Z"/>
  <path class="cls-1" d="M284.45,327.13l-30.41,59.83c-1.95-17.02-7.29-30.02-16.02-39.02-8.73-9-20.24-13.5-34.55-13.5-20.38,0-36.23,7.91-47.56,23.74-11.33,15.83-16.99,37.99-16.99,66.5,0,62.76,25.69,94.14,77.07,94.14h26.18v-84.39h-40.97c-8.89,0-15.26-.49-19.1-1.46-3.85-.98-7.56-3.09-11.14-6.34v-4.06c3.9,2.93,7.8,4.85,11.71,5.77,3.9,.92,10.24,1.38,19.02,1.38h40.49v-8.78h-52.52c-16.15,0-24.23-5.85-24.23-17.56,0-4.55,1.35-8.45,4.06-11.71,2.71-3.25,5.96-4.88,9.76-4.88,2.82,0,5.28,1.03,7.4,3.09,2.11,2.06,3.17,4.5,3.17,7.32,0,4.77-1.74,7.54-5.2,8.29l-3.9,.81c-1.3,.33-1.95,.87-1.95,1.63,0,1.41,1.79,2.11,5.37,2.11h112.84l-22.44,21.95v80.16l20.81,17.89h-99.51c-13.77,0-25.15-1.68-34.14-5.04-9-3.36-18.1-9.32-27.32-17.89-21.79-19.94-32.68-46.66-32.68-80.16s10.3-61.57,30.89-80.97c17.99-17.02,39.35-25.53,64.06-25.53,11.06,0,23.74,1.95,38.05,5.85,14.63,4.01,24.28,6.02,28.94,6.02,6.83,0,13.76-1.73,20.81-5.2Zm-42.27,34.96l-2.93-2.11c-12.36-8.78-23.63-13.17-33.82-13.17-12.36,0-23.04,4.39-32.03,13.17-6.5,6.5-11.19,15.01-14.06,25.53-2.87,10.52-4.31,24.39-4.31,41.62,0,21.9,2.17,38.64,6.5,50.24,4.33,11.6,12.3,22.06,23.9,31.38v1.79c-12.58-7.48-21.63-18.02-27.15-31.62-5.53-13.6-8.29-32.06-8.29-55.36,0-25.69,4.82-45.66,14.47-59.92,9.65-14.25,23.19-21.38,40.65-21.38,15.17,0,27.53,6.29,37.07,18.86v.98Zm61.79,57.23l-16.75,16.75v76.26l26.99,31.06-64.55-.49-58.53,.65c-3.69,0-6.5-.11-8.45-.33-6.83-.76-13.71-3.74-20.65-8.94h3.41c7.37,3.25,17.45,4.88,30.24,4.88l8.13-.16h101.3l-22.44-24.88v-79.67l18.7-18.86,2.6,3.74Zm-9.76-81.95l-27.8,54.63-3.9-1.79,27.97-54.79,3.74,1.95Z"/>
  <path class="cls-1" d="M546.55,321.44l-22.27,22.6v166.99l20,19.02h-74.79l22.6-19.02v-109.43l-51.54,141.78h-15.61l-1.3-4.39h14.15l54.31-151.21v-24.88l-60.49,166.99h-11.38l-44.55-131.21v86.01c0,11.49,.76,19.62,2.28,24.39,1.52,4.77,5.09,10.03,10.73,15.77l14.63,18.54h-85.04l-2.93-4.39h79.83l-6.02-8.94h-72.52l3.41-1.79c12.03-6.61,19.97-13.3,23.82-20.08,3.85-6.77,5.77-17.48,5.77-32.11v-134.47l-21.46-20.16h84.06l-23.58,21.3,46.01,136.09,5.85-14.15-41.62-120.65,21.3-15.77,3.41,2.76-20.32,14.31,38.7,113.33,41.95-115.93-19.84-21.3h82.43Zm-184.06,38.54v116.74c0,17.89,1.71,30.19,5.12,36.91,3.41,6.72,10.49,11.6,21.22,14.63l-1.46-2.44c-10.62-7.37-15.93-17.99-15.93-31.87v-108.13l-8.94-25.85Zm193.16-25.85l-18.37,13.17v163.9l28.29,32.19h-86.34l-2.28-4.39h78.7l-22.6-25.53v-168.94l19.19-13.17,3.41,2.76Z"/>
  <path class="cls-1" d="M756.62,321.44c-12.36,6.4-20.32,12.25-23.9,17.56-5.42,8.24-8.13,20.65-8.13,37.23v153.81h-27.48l-76.74-148.94v88.29l-.16,7.32,1.95,23.41c2.17,10.84,7.1,18.86,14.8,24.06l1.3,1.14c-14.96-4.98-22.44-20.97-22.44-47.97l.16-15.28v-88.94l-8.78-17.07v93.65c0,29.7,1.95,49.16,5.85,58.37,3.9,9.21,13.06,15.93,27.48,20.16l14.15,15.12h-88.13l-2.6-4.39h81.46l-8.45-8.94h-75.77c13.22-4.77,22-11.16,26.34-19.19,4.33-8.02,6.5-21.79,6.5-41.3v-130.08l-21.63-18.05h82.27l-23.09,15.45,78.7,153.49v-19.51l-67.48-131.38,22.76-15.45,3.09,3.09-20.16,13.66,61.79,121.3v-84.55c0-18.86-1.54-31.46-4.63-37.8-3.09-6.34-10.71-12.44-22.84-18.29h73.82Zm5.69,12.03l-2.93,4.88c-8.35,1.95-14.01,5.56-16.99,10.81-2.98,5.26-4.47,14.12-4.47,26.58v167.64h-34.96l-2.11-4.39h32.68v-161.62c0-15.28,1.98-25.93,5.93-31.95,3.96-6.02,11.57-10,22.85-11.95Z"/>
</svg>