<svg version="1.1" id="Layer_1" xmlns="http://www.w3.org/2000/svg" xmlns:xlink="http://www.w3.org/1999/xlink" x="0px" y="0px"
	 width="100%" viewBox="0 0 512 512" enable-background="new 0 0 512 512" xml:space="preserve">
<path fill="#f2f2f2" opacity="1.000000" stroke="none" 
	d="
M437.523315,131.599548 
	C435.937866,133.590851 433.273621,133.571228 431.628326,136.641373 
	C448.673859,134.942749 464.030029,129.594437 480.564911,123.323891 
	C474.486633,132.937531 468.132996,140.467911 461.346191,147.652191 
	C454.601410,154.791977 447.300446,161.346085 439.525726,167.327942 
	C436.744781,169.467590 436.208313,171.994400 436.324188,175.146530 
	C437.029144,194.320831 434.491974,213.286621 430.975525,231.987564 
	C428.634827,244.435379 424.920868,256.706879 420.525146,268.750671 
	C414.244385,285.959503 406.764282,302.522552 397.238037,318.129395 
	C384.190521,339.505188 368.544739,358.693604 349.897919,375.577179 
	C335.770294,388.368866 320.476929,399.414368 303.940704,408.606659 
	C288.594604,417.137390 272.413605,423.890411 255.383148,428.723175 
	C239.540924,433.218750 223.549561,436.673798 207.209625,438.131714 
	C187.675858,439.874603 168.148163,439.994232 148.535278,437.737396 
	C136.469116,436.348969 124.586876,434.393494 112.914413,431.340607 
	C88.877342,425.053680 66.081078,415.673004 44.916409,402.526031 
	C44.097614,402.017395 43.133133,401.659393 42.499619,399.268127 
	C89.373802,403.041656 131.818497,391.822083 169.394287,362.871857 
	C151.499573,359.030853 134.261337,354.193054 119.607368,342.943848 
	C104.958595,331.698608 95.110550,317.105896 88.576263,298.995819 
	C100.597343,299.104553 112.306992,301.429688 123.699043,296.813538 
	C81.620216,281.638947 58.866318,252.498001 56.399948,206.779648 
	C68.421257,212.245453 79.652161,216.939774 92.703697,216.552124 
	C56.267990,182.287384 47.633251,143.110046 68.994255,97.073715 
	C74.242317,101.060760 77.136482,105.558640 80.716209,109.360550 
	C102.599457,132.602203 127.650909,151.634338 156.269379,165.728683 
	C174.403946,174.659790 193.436920,181.200256 213.208954,185.838287 
	C224.555618,188.499939 236.118469,189.178345 247.481888,191.438522 
	C255.278412,192.989227 255.583298,191.580566 254.938507,183.167679 
	C253.674744,166.678879 254.770447,150.472946 261.715424,134.930557 
	C268.038635,120.779732 277.015564,108.990913 289.109955,99.411263 
	C301.492065,89.603729 315.540802,83.859848 331.118500,81.645523 
	C361.201721,77.369308 387.160583,86.078140 409.305756,106.581985 
	C411.282196,108.411964 413.229004,109.074974 415.611084,108.353226 
	C427.489685,104.754112 439.532776,101.600441 450.839020,96.354515 
	C456.355408,93.795006 461.705078,90.876152 467.592010,88.573074 
	C462.277527,106.118629 452.007416,120.102791 437.523315,131.599548 
z"/>
</svg>